<?xml version="1.0" encoding="UTF-8"?>
<!DOCTYPE svg PUBLIC "-//W3C//DTD SVG 1.1//EN" "http://www.w3.org/Graphics/SVG/1.1/DTD/svg11.dtd">
<!-- Creator: CorelDRAW -->
<svg xmlns="http://www.w3.org/2000/svg" xml:space="preserve" width="48.2854mm" height="14.097mm" version="1.1" style="shape-rendering:geometricPrecision; text-rendering:geometricPrecision; image-rendering:optimizeQuality; fill-rule:evenodd; clip-rule:evenodd"
viewBox="0 0 4828.54 1409.7"
 xmlns:xlink="http://www.w3.org/1999/xlink"
 xmlns:xodm="http://www.corel.com/coreldraw/odm/2003">
 <defs>
  <style type="text/css">
   <![CDATA[
    .fil0 {fill:none}
    .fil3 {fill:#65231C}
    .fil1 {fill:#996633}
    .fil4 {fill:#1C1B18;fill-rule:nonzero}
    .fil2 {fill:#996633;fill-rule:nonzero}
   ]]>
  </style>
 </defs>
 <g id="Layer_x0020_1">
  <metadata id="CorelCorpID_0Corel-Layer"/>
  <g id="_105553315217920">
   <rect class="fil0" x="-0.61" y="-0.39" width="4829.76" height="1410.48"/>
   <g>
    <g>
     <path class="fil1" d="M516.93 219.44c180.66,0 338.27,98.58 421.95,244.85l-40.69 40.65c-72.03,-136.92 -215.72,-230.31 -381.26,-230.31 -237.75,0 -430.49,192.62 -430.49,430.22 0,237.61 192.74,430.22 430.49,430.22 166.71,0 311.27,-94.7 382.79,-233.21l40.74 40.72c-83.25,147.82 -241.71,247.68 -423.53,247.68 -268.25,0 -485.71,-217.33 -485.71,-485.41 0,-268.08 217.46,-485.41 485.71,-485.41z"/>
     <path class="fil2" d="M571.96 762.39l-25.11 0 0 -95.29 -53.08 0 0 -19.99 131.27 0 0 19.99 -53.08 0 0 95.29zm134.13 1.42c-15.38,0 -27.8,-0.64 -37.26,-1.94 -9.46,-1.29 -16.77,-3.97 -21.94,-8.05 -5.18,-4.08 -8.61,-9.86 -10.31,-17.35 -1.7,-7.48 -2.56,-17.47 -2.56,-29.99l0 -3.26c0,-8.3 0.35,-15.47 1.03,-21.53 0.68,-6.05 1.97,-11.18 3.87,-15.4 1.91,-4.22 4.53,-7.65 7.86,-10.3 3.34,-2.66 7.66,-4.73 12.97,-6.23 5.31,-1.49 11.77,-2.51 19.39,-3.06 7.62,-0.54 16.61,-0.81 26.95,-0.81l5.1 0c14.02,0 25.29,0.51 33.79,1.53 8.51,1.02 15.08,2.85 19.7,5.51 4.63,2.65 7.69,6.35 9.19,11.11 1.5,4.77 2.25,10.82 2.25,18.16l0 4.49 -24.5 0 0 -2.24c0,-3.81 -0.38,-6.97 -1.13,-9.49 -0.75,-2.52 -2.51,-4.45 -5.3,-5.81 -2.83,-1.36 -6.95,-2.32 -12.39,-2.86 -5.48,-0.54 -12.96,-0.82 -22.52,-0.82l-3.47 0c-10.93,0 -19.54,0.34 -25.9,1.02 -6.33,0.68 -11.09,2.32 -14.32,4.9 -3.2,2.58 -5.24,6.43 -6.13,11.53 -0.88,5.1 -1.32,12.07 -1.32,20.91l0 2.04c0,8.84 0.44,15.78 1.32,20.81 0.89,5.03 2.93,8.81 6.13,11.32 3.23,2.52 7.99,4.12 14.32,4.8 6.36,0.68 14.97,1.02 25.9,1.02l3.47 0c9.69,0 17.35,-0.24 23.03,-0.72 5.65,-0.47 9.94,-1.46 12.9,-2.95 2.92,-1.5 4.79,-3.54 5.61,-6.12 0.82,-2.59 1.23,-6.06 1.23,-10.41l0 -1.84 24.29 0 0 5.31c0,7.21 -0.82,13.16 -2.45,17.85 -1.63,4.69 -4.83,8.43 -9.6,11.22 -4.76,2.79 -11.46,4.76 -20.1,5.92 -8.65,1.16 -19.98,1.73 -34,1.73l-5.1 0zm163.12 0c-15.38,0 -27.8,-0.64 -37.26,-1.94 -9.46,-1.29 -16.77,-3.97 -21.95,-8.05 -5.17,-4.08 -8.6,-9.86 -10.3,-17.35 -1.71,-7.48 -2.56,-17.47 -2.56,-29.99l0 -3.26c0,-8.3 0.34,-15.47 1.02,-21.53 0.68,-6.05 1.98,-11.18 3.88,-15.4 1.91,-4.22 4.53,-7.65 7.86,-10.3 3.34,-2.66 7.66,-4.73 12.97,-6.23 5.3,-1.49 11.77,-2.51 19.39,-3.06 7.62,-0.54 16.6,-0.81 26.95,-0.81l5.1 0c14.02,0 25.28,0.51 33.79,1.53 8.51,1.02 15.07,2.85 19.7,5.51 4.63,2.65 7.69,6.35 9.19,11.11 1.49,4.77 2.24,10.82 2.24,18.16l0 4.49 -24.5 0 0 -2.24c0,-3.81 -0.37,-6.97 -1.12,-9.49 -0.75,-2.52 -2.52,-4.45 -5.31,-5.81 -2.82,-1.36 -6.94,-2.32 -12.38,-2.86 -5.48,-0.54 -12.96,-0.82 -22.53,-0.82l-3.47 0c-10.92,0 -19.53,0.34 -25.89,1.02 -6.33,0.68 -11.09,2.32 -14.32,4.9 -3.2,2.58 -5.24,6.43 -6.13,11.53 -0.88,5.1 -1.33,12.07 -1.33,20.91l0 2.04c0,8.84 0.45,15.78 1.33,20.81 0.89,5.03 2.93,8.81 6.13,11.32 3.23,2.52 7.99,4.12 14.32,4.8 6.36,0.68 14.97,1.02 25.89,1.02l3.47 0c9.7,0 17.36,-0.24 23.04,-0.72 5.65,-0.47 9.93,-1.46 12.89,-2.95 2.93,-1.5 4.8,-3.54 5.62,-6.12 0.81,-2.59 1.22,-6.06 1.22,-10.41l0 -1.84 24.3 0 0 5.31c0,7.21 -0.82,13.16 -2.45,17.85 -1.64,4.69 -4.83,8.43 -9.6,11.22 -4.76,2.79 -11.46,4.76 -20.11,5.92 -8.64,1.16 -19.97,1.73 -33.99,1.73l-5.1 0z"/>
     <path class="fil3" d="M516.9 367.23c125.41,0 234.86,68.29 293.14,169.69l-45.73 46.39c-44.93,-91.18 -138.83,-153.94 -247.41,-153.94 -152.24,0 -275.65,123.34 -275.65,275.48 0,152.14 123.41,275.48 275.65,275.48 109.52,0 204.12,-63.84 248.59,-156.32l46.47 45.33c-57.77,103.29 -168.25,173.13 -295.06,173.13 -186.58,0 -337.84,-151.16 -337.84,-337.62 0,-186.46 151.26,-337.62 337.84,-337.62z"/>
     <path class="fil3" d="M442.72 458.21c-230.27,100.01 -247.25,392.62 19.6,497.4 31.47,10.4 53.46,-15.11 37.57,-37.17 -132.57,-138.85 -119.53,-303.28 -8.16,-421.64 34.24,-31.45 1.72,-58.03 -49.01,-38.59z"/>
    </g>
    <g>
     <path class="fil3" d="M2739.16 494.73c0.76,-0.33 1.58,-0.51 2.45,-0.51l29.47 0 0 -12.99c0,-8.42 0.81,-16.89 2.86,-25.06 1.91,-7.65 5.27,-14.71 10.4,-20.73 5.29,-6.19 12.07,-10.49 19.65,-13.33 9.15,-3.43 19.6,-4.39 29.31,-4.39 5.83,0 11.66,0.12 17.48,0.45 5.25,0.3 10.5,0.75 15.72,1.37 3.11,0.36 5.42,2.96 5.42,6.09l0 15.57c0,1.85 -0.73,3.45 -2.15,4.66 -1.41,1.21 -3.11,1.68 -4.94,1.39 -4.9,-0.77 -9.84,-1.39 -14.79,-1.71 -4.24,-0.28 -8.49,-0.44 -12.74,-0.44 -6.32,0 -13.41,0.36 -19.54,2.02 -3.58,0.96 -7.21,2.6 -9.74,5.39 -2.52,2.77 -3.84,6.58 -4.52,10.2 -1.18,6.25 -1.45,12.91 -1.45,19.26l0 12.25 53.95 0c3.38,0 6.13,2.76 6.13,6.13l0 15.13c0,3.37 -2.75,6.13 -6.13,6.13l-53.95 0 0 155.33c0,3.38 -2.76,6.13 -6.14,6.13l-18.69 0c-3.38,0 -6.14,-2.75 -6.14,-6.13l0 -155.33 -29.47 0c-0.87,0 -1.69,-0.18 -2.45,-0.51 -0.75,0.33 -1.57,0.51 -2.44,0.51l-53.95 0 0 155.33c0,3.38 -2.76,6.13 -6.14,6.13l-18.69 0c-3.38,0 -6.14,-2.75 -6.14,-6.13l0 -155.33 -29.47 0c-3.38,0 -6.13,-2.76 -6.13,-6.13l0 -15.13c0,-3.37 2.75,-6.13 6.13,-6.13l29.47 0 0 -12.99c0,-8.42 0.81,-16.89 2.86,-25.06 1.91,-7.65 5.27,-14.71 10.41,-20.73 5.28,-6.19 12.06,-10.49 19.64,-13.33 9.15,-3.43 19.6,-4.39 29.31,-4.39 5.83,0 11.66,0.12 17.48,0.45 5.26,0.3 10.5,0.75 15.73,1.37 3.1,0.36 5.41,2.96 5.41,6.09l0 15.57c0,1.85 -0.73,3.45 -2.15,4.66 -1.41,1.21 -3.11,1.68 -4.94,1.39 -4.9,-0.77 -9.84,-1.39 -14.79,-1.71 -4.24,-0.28 -8.49,-0.44 -12.74,-0.44 -6.32,0 -13.4,0.36 -19.54,2.02 -3.58,0.96 -7.2,2.6 -9.74,5.39 -2.52,2.77 -3.84,6.58 -4.52,10.2 -1.17,6.25 -1.45,12.91 -1.45,19.26l0 12.25 53.95 0c0.87,0 1.69,0.18 2.44,0.51zm-1558.33 -45.18l-122.94 0c-3.38,0 -6.13,-2.75 -6.13,-6.13l0 -16.9c0,-3.38 2.75,-6.13 6.13,-6.13l278.62 0c3.38,0 6.13,2.75 6.13,6.13l0 16.9c0,3.38 -2.75,6.13 -6.13,6.13l-123.38 0 0 227.39c0,3.38 -2.76,6.13 -6.14,6.13l-20.03 0c-3.38,0 -6.13,-2.75 -6.13,-6.13l0 -227.39zm215.67 65.63c0,-0.01 0,-0.01 0,-0.01 4.92,-6.05 11.36,-10.58 18.34,-13.96 8.53,-4.12 18.13,-6.6 27.43,-8.23 13.06,-2.29 26.99,-2.76 40.23,-2.76l6.23 0c15.37,0 31.49,0.58 46.66,3.2 11.04,1.91 22.37,5.54 31.25,12.58 8.42,6.67 13.78,15.6 16.77,25.85 3.59,12.31 4.47,26.16 4.47,38.93l0 106.16c0,3.38 -2.75,6.13 -6.13,6.13l-18.7 0c-3.38,0 -6.13,-2.75 -6.13,-6.13l0 -98.3c0,-10.3 -0.44,-21.7 -2.74,-31.78 -1.45,-6.32 -4.18,-12.21 -9.16,-16.52 -5.55,-4.79 -13.54,-7.14 -20.63,-8.38 -12.65,-2.19 -26.41,-2.58 -39.22,-2.58l-6.24 0c-12.61,0 -25.5,0.6 -37.97,2.6 -8.86,1.41 -17.87,4.09 -25.41,9.07 -6.52,4.3 -11.16,10.08 -14.19,17.28 -3.84,9.12 -4.86,20.06 -4.86,29.86l0 98.75c0,3.38 -2.76,6.13 -6.14,6.13l-18.69 0c-3.38,0 -6.13,-2.75 -6.13,-6.13l0 -250.87c0,-3.38 2.75,-6.13 6.13,-6.13l18.69 0c3.38,0 6.14,2.75 6.14,6.13l0 89.11zm261.71 80.27c0.07,10.41 0.69,21.75 3.15,31.76 1.76,7.12 5.08,13.39 10.83,18.06 6.6,5.37 15.93,7.89 24.19,9.15 14.79,2.24 30.66,2.6 45.59,2.6l6.68 0c13.76,0 28.09,-0.28 41.75,-1.96 7.36,-0.9 16.38,-2.57 22.94,-6.18 4.24,-2.33 7.53,-5.51 9.22,-10.09 2.18,-5.93 2.74,-12.96 2.74,-19.23l0 -3.11c0,-3.38 2.75,-6.14 6.13,-6.14l18.25 0c3.38,0 6.14,2.76 6.14,6.14l0 3.55c0,10.6 -1.22,21.92 -5.38,31.75 -3.86,9.11 -10.26,16.18 -18.71,21.31 -9.77,5.93 -21.84,8.85 -33.06,10.4 -15.98,2.2 -32.57,2.72 -48.69,2.72l-8.01 0c-18.37,0 -37.92,-0.63 -56.04,-3.87 -12.85,-2.3 -25.89,-6.71 -36.02,-15.2 -9.57,-8.02 -15.34,-18.63 -18.27,-30.68 -3.59,-14.8 -4.4,-31.27 -4.4,-46.45l0 -4.45c0,-15.34 0.83,-32.12 4.64,-47.03 3.03,-11.86 8.78,-22.42 18.26,-30.32 9.93,-8.29 22.6,-12.49 35.21,-14.55 17.4,-2.83 35.9,-3.41 53.51,-3.41l7.56 0c17.09,0 35.02,0.53 51.92,3.19 11.76,1.84 24.06,5.45 33.8,12.51 8.89,6.44 14.75,15.26 17.86,25.76 3.56,12.02 4.48,25.5 4.48,37.99l0 19.64c0,3.38 -2.75,6.14 -6.13,6.14l-190.14 0zm511.03 90.73c-25.21,0 -51.79,-0.61 -76.77,-4.29 -16.86,-2.48 -34.35,-7.78 -47.58,-18.95 -12.68,-10.71 -19.71,-25.42 -23.18,-41.42 -4.58,-21.21 -5.47,-44.81 -5.47,-66.46l0 -7.11c0,-21.44 0.89,-44.81 5.48,-65.8 3.46,-15.86 10.43,-30.46 22.92,-41.16 13.12,-11.24 30.73,-16.71 47.52,-19.42 24.99,-4.03 51.8,-4.74 77.08,-4.74l10.24 0c23.9,0 48.54,0.39 72.31,2.92 14.43,1.54 31.12,4.5 44.06,11.36 10.65,5.64 18.57,13.99 22.51,25.44 4.18,12.13 5.23,26.16 5.23,38.91l0 4.89c0,3.38 -2.75,6.14 -6.13,6.14l-19.59 0c-3.38,0 -6.13,-2.76 -6.13,-6.14l0 -4c0,-8.42 -0.54,-18.11 -3.06,-26.19 -1.96,-6.26 -6.81,-10.37 -12.51,-13.27 -9.55,-4.86 -23.06,-6.81 -33.62,-7.81 -20.9,-1.97 -42.53,-2.2 -63.51,-2.2l-9.35 0c-21.88,0 -44.91,0.4 -66.62,3.28 -12.16,1.62 -25.78,5.16 -35.33,13.28 -8.83,7.5 -13.23,18.2 -15.3,29.36 -3.36,18.1 -3.9,38.11 -3.9,56.48l0 4.45c0,18.32 0.48,38.23 3.68,56.31 1.97,11.11 6.3,21.64 15.07,29.09 9.57,8.13 23.21,11.78 35.39,13.5 21.75,3.08 45.06,3.5 67.01,3.5l9.35 0c21.74,0 44.1,-0.23 65.76,-2.2 10.83,-0.98 24.92,-2.92 34.75,-7.83 5.89,-2.95 10.84,-7.14 12.93,-13.54 2.69,-8.23 3.26,-18.19 3.26,-26.79l0 -3.56c0,-3.38 2.76,-6.13 6.14,-6.13l19.14 0c3.38,0 6.13,2.75 6.13,6.13l0 5.34c0,12.9 -1.25,27.04 -5.98,39.15 -4.49,11.49 -12.92,19.71 -23.86,25.25 -13.39,6.79 -30.28,9.76 -45.08,11.31 -23.81,2.49 -48.38,2.92 -72.3,2.92l-10.69 0zm308.44 0c-18.51,0 -38.06,-0.52 -56.36,-3.41 -12.69,-2 -25.77,-6.05 -35.86,-14.28 -9.62,-7.84 -15.25,-18.52 -18.11,-30.45 -3.61,-15.04 -4.4,-31.75 -4.4,-47.17l0 -5.78c0,-15.33 0.77,-32.03 4.4,-46.97 2.89,-11.87 8.56,-22.42 18.11,-30.21 10.09,-8.23 23.17,-12.28 35.86,-14.28 18.3,-2.89 37.85,-3.41 56.36,-3.41l8.46 0c18.51,0 38.06,0.52 56.37,3.41 12.68,2 25.77,6.05 35.86,14.28 9.56,7.8 15.16,18.37 17.9,30.29 3.44,14.96 4.16,31.58 4.16,46.89l0 5.78c0,15.4 -0.74,32.04 -4.16,47.1 -2.72,11.98 -8.29,22.68 -17.9,30.52 -10.09,8.23 -23.18,12.28 -35.86,14.28 -18.31,2.89 -37.86,3.41 -56.37,3.41l-8.46 0zm425.41 -90.73c0.07,10.41 0.68,21.75 3.15,31.76 1.75,7.12 5.07,13.39 10.82,18.06 6.6,5.37 15.93,7.89 24.2,9.15 14.78,2.24 30.65,2.6 45.59,2.6l6.67 0c13.77,0 28.09,-0.28 41.76,-1.96 7.35,-0.9 16.37,-2.57 22.94,-6.18 4.24,-2.33 7.53,-5.51 9.21,-10.09 2.18,-5.93 2.74,-12.96 2.74,-19.23l0 -3.11c0,-3.38 2.76,-6.14 6.14,-6.14l18.24 0c3.38,0 6.14,2.76 6.14,6.14l0 3.55c0,10.6 -1.22,21.92 -5.38,31.75 -3.86,9.11 -10.26,16.18 -18.71,21.31 -9.77,5.93 -21.84,8.85 -33.06,10.4 -15.98,2.2 -32.57,2.72 -48.68,2.72l-8.01 0c-18.38,0 -37.93,-0.63 -56.05,-3.87 -12.85,-2.3 -25.88,-6.71 -36.02,-15.2 -9.57,-8.02 -15.34,-18.63 -18.26,-30.68 -3.6,-14.8 -4.41,-31.27 -4.41,-46.45l0 -4.45c0,-15.34 0.83,-32.12 4.64,-47.03 3.04,-11.86 8.79,-22.42 18.26,-30.32 9.94,-8.29 22.61,-12.49 35.21,-14.55 17.41,-2.83 35.9,-3.41 53.51,-3.41l7.57 0c17.08,0 35.01,0.53 51.91,3.19 11.76,1.84 24.06,5.45 33.81,12.51 8.88,6.44 14.75,15.26 17.86,25.76 3.55,12.02 4.47,25.5 4.47,37.99l0 19.64c0,3.38 -2.75,6.14 -6.13,6.14l-190.13 0zm261.25 0c0.07,10.41 0.69,21.75 3.16,31.76 1.75,7.12 5.07,13.39 10.82,18.06 6.6,5.37 15.93,7.89 24.19,9.15 14.79,2.24 30.66,2.6 45.59,2.6l6.68 0c13.76,0 28.09,-0.28 41.75,-1.96 7.36,-0.9 16.38,-2.57 22.95,-6.18 4.24,-2.33 7.52,-5.51 9.21,-10.09 2.18,-5.93 2.74,-12.96 2.74,-19.23l0 -3.11c0,-3.38 2.76,-6.14 6.13,-6.14l18.25 0c3.38,0 6.14,2.76 6.14,6.14l0 3.55c0,10.6 -1.22,21.92 -5.38,31.75 -3.86,9.11 -10.26,16.18 -18.71,21.31 -9.77,5.93 -21.84,8.85 -33.06,10.4 -15.98,2.2 -32.57,2.72 -48.68,2.72l-8.02 0c-18.37,0 -37.92,-0.63 -56.04,-3.87 -12.85,-2.3 -25.89,-6.71 -36.02,-15.2 -9.57,-8.02 -15.34,-18.63 -18.27,-30.68 -3.59,-14.8 -4.4,-31.27 -4.4,-46.45l0 -4.45c0,-15.34 0.83,-32.12 4.64,-47.03 3.03,-11.86 8.79,-22.42 18.26,-30.32 9.93,-8.29 22.6,-12.49 35.21,-14.55 17.4,-2.83 35.9,-3.41 53.51,-3.41l7.56 0c17.09,0 35.02,0.53 51.92,3.19 11.76,1.84 24.06,5.45 33.8,12.51 8.89,6.44 14.76,15.26 17.86,25.76 3.56,12.02 4.48,25.5 4.48,37.99l0 19.64c0,3.38 -2.75,6.14 -6.13,6.14l-190.14 0zm511.04 90.73c-25.22,0 -51.8,-0.61 -76.78,-4.29 -16.86,-2.48 -34.35,-7.78 -47.58,-18.95 -12.68,-10.71 -19.71,-25.42 -23.17,-41.42 -4.59,-21.21 -5.48,-44.81 -5.48,-66.46l0 -7.11c0,-21.44 0.9,-44.81 5.48,-65.8 3.46,-15.86 10.43,-30.46 22.92,-41.16 13.12,-11.24 30.73,-16.71 47.52,-19.42 24.99,-4.03 51.8,-4.74 77.09,-4.74l10.23 0c23.9,0 48.54,0.39 72.31,2.92 14.43,1.54 31.13,4.5 44.06,11.36 10.65,5.64 18.57,13.99 22.51,25.44 4.18,12.13 5.23,26.16 5.23,38.91l0 4.89c0,3.38 -2.75,6.14 -6.13,6.14l-19.59 0c-3.38,0 -6.13,-2.76 -6.13,-6.14l0 -4c0,-8.42 -0.54,-18.11 -3.06,-26.19 -1.96,-6.26 -6.81,-10.37 -12.5,-13.27 -9.56,-4.86 -23.07,-6.81 -33.63,-7.81 -20.9,-1.97 -42.53,-2.2 -63.51,-2.2l-9.35 0c-21.88,0 -44.91,0.4 -66.62,3.28 -12.16,1.62 -25.78,5.16 -35.33,13.28 -8.83,7.5 -13.23,18.2 -15.3,29.36 -3.36,18.1 -3.9,38.11 -3.9,56.48l0 4.45c0,18.32 0.48,38.23 3.69,56.31 1.96,11.11 6.3,21.64 15.06,29.09 9.57,8.13 23.21,11.78 35.39,13.5 21.76,3.08 45.06,3.5 67.01,3.5l9.35 0c21.74,0 44.1,-0.23 65.76,-2.2 10.83,-0.98 24.92,-2.92 34.75,-7.83 5.89,-2.95 10.84,-7.14 12.93,-13.54 2.69,-8.23 3.26,-18.19 3.26,-26.79l0 -3.56c0,-3.38 2.76,-6.13 6.14,-6.13l19.14 0c3.38,0 6.13,2.75 6.13,6.13l0 5.34c0,12.9 -1.25,27.04 -5.98,39.15 -4.49,11.49 -12.92,19.71 -23.86,25.25 -13.38,6.79 -30.28,9.76 -45.08,11.31 -23.81,2.49 -48.38,2.92 -72.3,2.92l-10.68 0zm226.54 -3.11l-18.69 0c-3.38,0 -6.14,-2.75 -6.14,-6.13l0 -250.87c0,-3.38 2.76,-6.13 6.14,-6.13l18.69 0c3.38,0 6.14,2.75 6.14,6.13l0 250.87c0,3.38 -2.76,6.13 -6.14,6.13zm80.11 0l-18.69 0c-3.38,0 -6.13,-2.75 -6.13,-6.13l0 -177.03c0,-3.38 2.75,-6.13 6.13,-6.13l18.69 0c3.38,0 6.14,2.75 6.14,6.13l0 177.03c0,3.38 -2.76,6.13 -6.14,6.13zm0 -222.4l-18.69 0c-3.38,0 -6.13,-2.75 -6.13,-6.13l0 -28.47c0,-3.38 2.75,-6.13 6.13,-6.13l18.69 0c3.38,0 6.14,2.75 6.14,6.13l0 28.47c0,3.38 -2.76,6.13 -6.14,6.13zm246.67 205.05c-0.38,0.4 -0.77,0.79 -1.17,1.17 -5.52,5.34 -12.31,9.11 -19.47,11.79 -8.8,3.3 -18.47,4.98 -27.8,5.92 -12.58,1.25 -25.37,1.58 -38,1.58l-6.68 0c-16.87,0 -34.75,-0.63 -51.38,-3.65 -12.14,-2.21 -24.29,-6.53 -33.67,-14.78 -9.15,-8.05 -14.38,-18.85 -17.06,-30.59 -3.4,-14.89 -4.16,-31.28 -4.16,-46.51l0 -4.9c0,-15.13 0.75,-31.51 4.16,-46.3 2.68,-11.59 7.83,-22.28 16.79,-30.32 9.26,-8.31 21.41,-12.62 33.49,-14.81 16.68,-3.03 34.68,-3.65 51.62,-3.66l6.01 -0.43c0.15,-0.01 0.29,-0.01 0.44,-0.01 12.99,0 26.17,0.31 39.1,1.58 9.35,0.93 19.09,2.56 27.95,5.75 7.22,2.59 14.02,6.34 19.44,11.85 0.28,0.28 0.56,0.58 0.84,0.87l0 -10.36c0,-3.33 2.66,-6.05 5.98,-6.13l18.25 -0.44c1.72,-0.05 3.21,0.54 4.44,1.74 1.22,1.19 1.85,2.67 1.85,4.38l0 240.19c0,3.38 -2.76,6.14 -6.14,6.14l-18.69 0c-3.38,0 -6.14,-2.76 -6.14,-6.14l0 -73.93zm267.94 -4.23c-5.06,6.05 -11.53,10.56 -18.64,13.88 -8.61,4.04 -18.25,6.45 -27.6,8.06 -12.96,2.22 -26.63,2.75 -39.76,2.75l-6.23 0c-15.38,0 -31.59,-0.63 -46.73,-3.43 -11.18,-2.07 -22.44,-5.99 -31.29,-13.32 -8.34,-6.92 -13.68,-16.02 -16.67,-26.38 -3.56,-12.37 -4.46,-26.24 -4.46,-39.06l0 -104.08c0,-3.38 2.75,-6.13 6.13,-6.13l18.69 0c3.38,0 6.14,2.75 6.14,6.13l0 95.19c0,10.69 0.41,22.3 2.55,32.8 1.35,6.64 4.09,12.76 9.2,17.34 5.65,5.04 13.55,7.62 20.86,8.99 12.68,2.39 26.71,2.79 39.59,2.79l6.23 0c12.52,0 25.36,-0.59 37.74,-2.59 8.79,-1.43 17.72,-4.07 25.27,-8.9 6.56,-4.2 11.13,-10.01 14.1,-17.19 3.87,-9.34 4.88,-20.56 4.88,-30.57l0 -97.86c0,-3.38 2.75,-6.13 6.13,-6.13l18.7 0c3.38,0 6.13,2.75 6.13,6.13l0 177.03c0,3.38 -2.75,6.13 -6.13,6.13l-18.7 0c-3.38,0 -6.13,-2.75 -6.13,-6.13l0 -15.45zm103.07 -66.04c0.07,10.41 0.69,21.75 3.15,31.76 1.76,7.12 5.08,13.39 10.83,18.06 6.6,5.37 15.93,7.89 24.19,9.15 14.79,2.24 30.66,2.6 45.59,2.6l6.68 0c13.76,0 28.09,-0.28 41.75,-1.96 7.36,-0.9 16.38,-2.57 22.94,-6.18 4.24,-2.33 7.53,-5.51 9.22,-10.09 2.18,-5.93 2.74,-12.96 2.74,-19.23l0 -3.11c0,-3.38 2.75,-6.14 6.13,-6.14l18.25 0c3.38,0 6.14,2.76 6.14,6.14l0 3.55c0,10.6 -1.22,21.92 -5.38,31.75 -3.86,9.11 -10.26,16.18 -18.71,21.31 -9.77,5.93 -21.84,8.85 -33.06,10.4 -15.98,2.2 -32.57,2.72 -48.69,2.72l-8.01 0c-18.38,0 -37.92,-0.63 -56.04,-3.87 -12.85,-2.3 -25.89,-6.71 -36.02,-15.2 -9.57,-8.02 -15.34,-18.63 -18.27,-30.68 -3.59,-14.8 -4.4,-31.27 -4.4,-46.45l0 -4.45c0,-15.34 0.83,-32.12 4.64,-47.03 3.03,-11.86 8.78,-22.42 18.26,-30.32 9.93,-8.29 22.6,-12.49 35.21,-14.55 17.4,-2.83 35.9,-3.41 53.51,-3.41l7.56 0c17.09,0 35.02,0.53 51.92,3.19 11.76,1.84 24.06,5.45 33.8,12.51 8.89,6.44 14.75,15.26 17.86,25.76 3.56,12.02 4.48,25.5 4.48,37.99l0 19.64c0,3.38 -2.75,6.14 -6.13,6.14l-190.14 0zm-2776.19 -28.28l0 -0.1c0,-8.08 -0.51,-17 -2.67,-24.83 -1.53,-5.52 -4.56,-9.8 -9.32,-13.01 -6.35,-4.29 -15.36,-6.35 -22.83,-7.47 -13.87,-2.05 -28.72,-2.38 -42.72,-2.38l-6.23 0c-14.55,0 -29.89,0.33 -44.31,2.39 -7.74,1.11 -17.09,3.24 -23.58,7.83 -5.18,3.66 -8.24,8.7 -9.85,14.8 -1.9,7.18 -2.75,15.12 -3.13,22.77l164.64 0zm662.17 89.85c15.35,0 31.57,-0.3 46.79,-2.39 8.11,-1.12 17.63,-3.45 24.13,-8.7 5.7,-4.62 8.65,-11.18 10.08,-18.25 2.37,-11.66 2.78,-24.72 2.78,-36.59l0 -5.78c0,-11.87 -0.41,-24.93 -2.78,-36.59 -1.43,-7.07 -4.38,-13.63 -10.08,-18.25 -6.5,-5.25 -16.02,-7.58 -24.13,-8.7 -15.22,-2.09 -31.43,-2.39 -46.79,-2.39l-8.01 0c-15.35,0 -31.56,0.3 -46.78,2.39 -8.11,1.12 -17.63,3.45 -24.13,8.7 -5.7,4.62 -8.65,11.19 -10.09,18.25 -2.37,11.66 -2.76,24.72 -2.76,36.59l0 5.78c0,11.87 0.39,24.93 2.76,36.59 1.44,7.07 4.39,13.63 10.09,18.25 6.5,5.25 16.02,7.58 24.13,8.7 15.22,2.09 31.43,2.39 46.78,2.39l8.01 0zm582.7 -89.85l0 -0.1c0,-8.08 -0.51,-17 -2.67,-24.83 -1.53,-5.52 -4.56,-9.8 -9.31,-13.01 -6.36,-4.29 -15.37,-6.35 -22.84,-7.47 -13.87,-2.05 -28.72,-2.38 -42.72,-2.38l-6.23 0c-14.55,0 -29.89,0.33 -44.31,2.39 -7.73,1.11 -17.09,3.24 -23.58,7.83 -5.17,3.66 -8.24,8.7 -9.85,14.8 -1.9,7.18 -2.75,15.12 -3.13,22.77l164.64 0zm261.26 0l0 -0.1c0,-8.08 -0.51,-17 -2.67,-24.83 -1.53,-5.52 -4.56,-9.8 -9.32,-13.01 -6.35,-4.29 -15.36,-6.35 -22.83,-7.47 -13.87,-2.05 -28.72,-2.38 -42.72,-2.38l-6.23 0c-14.55,0 -29.89,0.33 -44.31,2.39 -7.74,1.11 -17.09,3.24 -23.58,7.83 -5.17,3.66 -8.24,8.7 -9.85,14.8 -1.9,7.18 -2.75,15.12 -3.13,22.77l164.64 0zm816.62 89.85c14.77,0 30.34,-0.33 44.98,-2.39 8.21,-1.16 17.36,-3.58 23.91,-8.91 5.84,-4.75 8.98,-11.33 10.57,-18.58 2.55,-11.67 2.97,-25.02 2.97,-36.94l0 -4.89c0,-11.81 -0.44,-24.93 -2.97,-36.5 -1.57,-7.14 -4.67,-13.69 -10.5,-18.29 -6.59,-5.21 -15.81,-7.6 -23.98,-8.75 -14.64,-2.06 -30.21,-2.39 -44.98,-2.39l-7.57 0c-14.29,0 -29.63,0.34 -43.76,2.6 -7.72,1.23 -16.51,3.68 -22.59,8.84 -5.48,4.66 -8.21,11.32 -9.51,18.26 -2.18,11.63 -2.57,24.42 -2.57,36.23l0 4.89c0,11.93 0.36,24.93 2.57,36.68 1.32,7.04 4.09,13.73 9.58,18.53 6.04,5.29 14.76,7.78 22.52,9.02 14.13,2.26 29.47,2.59 43.76,2.59l7.57 0zm618.75 -89.85l0 -0.1c0,-8.08 -0.51,-17 -2.67,-24.83 -1.53,-5.52 -4.56,-9.8 -9.32,-13.01 -6.36,-4.29 -15.36,-6.35 -22.83,-7.47 -13.87,-2.05 -28.72,-2.38 -42.72,-2.38l-6.23 0c-14.55,0 -29.89,0.33 -44.31,2.39 -7.74,1.11 -17.09,3.24 -23.58,7.83 -5.18,3.66 -8.24,8.7 -9.85,14.8 -1.9,7.18 -2.75,15.12 -3.13,22.77l164.64 0z"/>
     <path class="fil4" d="M1463.62 918.67c10.14,1.89 17.89,5.88 23.23,11.96 5.34,6.08 8.01,13.99 8.01,23.72 0,12.03 -4.4,21.29 -13.18,27.77 -8.8,6.49 -21.85,9.73 -39.15,9.73l-63.29 0 0 -141.9 59.23 0c15.41,0 27.42,3.14 36,9.42 8.59,6.29 12.88,15.24 12.88,26.86 0,8.11 -2.13,14.94 -6.39,20.48 -4.26,5.54 -10.04,9.53 -17.34,11.96zm-74.04 -59.8l0 56.56 48.48 0c12.44,0 22.01,-2.4 28.71,-7.2 6.69,-4.8 10.04,-11.86 10.04,-21.18 0,-9.19 -3.35,-16.19 -10.04,-20.99 -6.7,-4.79 -16.27,-7.19 -28.71,-7.19l-48.48 0zm52.95 124.06c13.79,0 24.24,-2.4 31.34,-7.19 7.09,-4.8 10.64,-12.2 10.64,-22.2 0,-10 -3.55,-17.37 -10.64,-22.1 -7.1,-4.73 -17.55,-7.09 -31.34,-7.09l-52.95 0 0 58.58 52.95 0zm175.46 -41.55l-91.08 0c0.27,8.24 2.37,15.57 6.29,21.99 3.92,6.42 9.23,11.39 15.92,14.9 6.7,3.51 14.24,5.27 22.62,5.27 6.9,0 13.29,-1.25 19.17,-3.75 5.88,-2.5 10.78,-6.18 14.71,-11.05l5.88 6.69c-4.6,5.54 -10.38,9.8 -17.34,12.77 -6.97,2.98 -14.51,4.46 -22.62,4.46 -10.55,0 -19.95,-2.29 -28.2,-6.89 -8.25,-4.59 -14.7,-10.94 -19.37,-19.05 -4.67,-8.11 -7,-17.37 -7,-27.78 0,-10.27 2.2,-19.49 6.59,-27.67 4.4,-8.18 10.45,-14.56 18.16,-19.16 7.71,-4.59 16.36,-6.89 25.96,-6.89 9.61,0 18.23,2.26 25.87,6.79 7.64,4.53 13.65,10.85 18.05,18.96 4.4,8.11 6.59,17.3 6.59,27.57l-0.2 2.84zm-50.31 -47.24c-7.44,0 -14.13,1.66 -20.08,4.97 -5.95,3.31 -10.72,7.97 -14.3,13.99 -3.58,6.01 -5.65,12.8 -6.19,20.37l81.14 0c-0.4,-7.57 -2.43,-14.33 -6.08,-20.27 -3.65,-5.95 -8.45,-10.61 -14.4,-13.99 -5.96,-3.38 -12.65,-5.07 -20.09,-5.07zm114.61 -8.92c13.12,0 23.19,3.35 30.23,10.04 7.03,6.69 10.55,16.52 10.55,29.49l0 67.1 -9.74 0 0 -18.85c-3.38,6.22 -8.32,11.05 -14.81,14.49 -6.49,3.45 -14.27,5.17 -23.33,5.17 -11.76,0 -21.06,-2.77 -27.89,-8.31 -6.83,-5.54 -10.24,-12.84 -10.24,-21.89 0,-8.79 3.14,-15.92 9.43,-21.39 6.29,-5.47 16.33,-8.21 30.12,-8.21l36.31 0 0 -8.51c0,-9.87 -2.67,-17.37 -8.01,-22.51 -5.34,-5.13 -13.15,-7.7 -23.43,-7.7 -7.03,0 -13.76,1.22 -20.18,3.65 -6.43,2.43 -11.87,5.68 -16.33,9.73l-5.07 -7.3c5.27,-4.73 11.63,-8.41 19.06,-11.04 7.44,-2.64 15.22,-3.96 23.33,-3.96zm-5.68 99.13c8.79,0 16.27,-2.02 22.42,-6.08 6.15,-4.05 10.78,-9.93 13.89,-17.63l0 -19.87 -36.1 0c-10.42,0 -17.96,1.89 -22.62,5.67 -4.67,3.79 -7,8.99 -7,15.61 0,6.9 2.57,12.34 7.71,16.32 5.14,3.99 12.37,5.98 21.7,5.98zm140.78 0.81c-2.57,2.44 -5.78,4.3 -9.64,5.58 -3.85,1.28 -7.87,1.92 -12.07,1.92 -9.19,0 -16.29,-2.53 -21.29,-7.6 -5.01,-5.06 -7.51,-12.13 -7.51,-21.18l0 -69.13 -19.47 0 0 -8.72 19.47 0 0 -23.11 10.14 0 0 23.11 33.68 0 0 8.72 -33.68 0 0 68.11c0,6.9 1.66,12.13 4.97,15.72 3.32,3.58 8.22,5.37 14.71,5.37 6.63,0 12.1,-1.96 16.43,-5.88l4.26 7.09zm113.8 -43.78l-91.08 0c0.27,8.24 2.36,15.57 6.29,21.99 3.92,6.42 9.23,11.39 15.92,14.9 6.69,3.51 14.23,5.27 22.62,5.27 6.89,0 13.28,-1.25 19.17,-3.75 5.88,-2.5 10.78,-6.18 14.7,-11.05l5.88 6.69c-4.59,5.54 -10.37,9.8 -17.34,12.77 -6.96,2.98 -14.5,4.46 -22.62,4.46 -10.54,0 -19.94,-2.29 -28.19,-6.89 -8.25,-4.59 -14.71,-10.94 -19.37,-19.05 -4.67,-8.11 -7,-17.37 -7,-27.78 0,-10.27 2.2,-19.49 6.59,-27.67 4.39,-8.18 10.45,-14.56 18.15,-19.16 7.71,-4.59 16.37,-6.89 25.97,-6.89 9.6,0 18.22,2.26 25.86,6.79 7.64,4.53 13.66,10.85 18.06,18.96 4.39,8.11 6.59,17.3 6.59,27.57l-0.2 2.84zm-50.31 -47.24c-7.44,0 -14.13,1.66 -20.08,4.97 -5.95,3.31 -10.72,7.97 -14.3,13.99 -3.59,6.01 -5.65,12.8 -6.19,20.37l81.14 0c-0.41,-7.57 -2.43,-14.33 -6.09,-20.27 -3.65,-5.95 -8.45,-10.61 -14.4,-13.99 -5.95,-3.38 -12.64,-5.07 -20.08,-5.07zm133.68 -8.92c13.25,0 23.73,3.85 31.44,11.56 7.71,7.7 11.56,18.78 11.56,33.24l0 61.83 -10.14 0 0 -61.02c0,-11.89 -3.01,-20.94 -9.03,-27.16 -6.01,-6.22 -14.43,-9.33 -25.25,-9.33 -12.44,0 -22.25,3.72 -29.41,11.15 -7.17,7.44 -10.76,17.44 -10.76,30.01l0 56.35 -10.14 0 0 -105.82 9.74 0 0 22.91c3.65,-7.43 9.09,-13.25 16.33,-17.43 7.23,-4.19 15.79,-6.29 25.66,-6.29zm200.21 107.65c-13.93,0 -26.47,-3.11 -37.63,-9.33 -11.16,-6.21 -19.95,-14.8 -26.37,-25.74 -6.42,-10.95 -9.63,-23.25 -9.63,-36.9 0,-13.65 3.21,-25.95 9.63,-36.89 6.42,-10.95 15.21,-19.53 26.37,-25.75 11.16,-6.22 23.7,-9.33 37.63,-9.33 10.28,0 19.74,1.66 28.4,4.97 8.65,3.31 16.02,8.21 22.11,14.7l-6.49 6.69c-11.36,-11.22 -25.9,-16.83 -43.62,-16.83 -11.9,0 -22.71,2.71 -32.45,8.11 -9.74,5.41 -17.38,12.87 -22.92,22.4 -5.55,9.53 -8.32,20.17 -8.32,31.93 0,11.76 2.77,22.4 8.32,31.93 5.54,9.53 13.18,16.99 22.92,22.4 9.74,5.41 20.55,8.11 32.45,8.11 17.58,0 32.12,-5.68 43.62,-17.03l6.49 6.69c-6.09,6.49 -13.49,11.42 -22.21,14.8 -8.73,3.38 -18.16,5.07 -28.3,5.07zm118.46 -0.21c-10,0 -19.03,-2.29 -27.08,-6.89 -8.04,-4.59 -14.37,-10.98 -18.96,-19.15 -4.6,-8.18 -6.9,-17.41 -6.9,-27.68 0,-10.27 2.3,-19.49 6.9,-27.67 4.59,-8.18 10.92,-14.56 18.96,-19.16 8.05,-4.59 17.08,-6.89 27.08,-6.89 10.01,0 19.04,2.3 27.08,6.89 8.05,4.6 14.37,10.98 18.97,19.16 4.6,8.18 6.9,17.4 6.9,27.67 0,10.27 -2.3,19.5 -6.9,27.68 -4.6,8.17 -10.92,14.56 -18.97,19.15 -8.04,4.6 -17.07,6.89 -27.08,6.89zm0 -9.12c8.12,0 15.38,-1.89 21.81,-5.68 6.42,-3.78 11.49,-9.05 15.21,-15.81 3.72,-6.75 5.58,-14.46 5.58,-23.11 0,-8.65 -1.86,-16.35 -5.58,-23.11 -3.72,-6.76 -8.79,-12.02 -15.21,-15.81 -6.43,-3.78 -13.69,-5.68 -21.81,-5.68 -8.11,0 -15.38,1.9 -21.8,5.68 -6.43,3.79 -11.5,9.05 -15.22,15.81 -3.72,6.76 -5.58,14.46 -5.58,23.11 0,8.65 1.86,16.36 5.58,23.11 3.72,6.76 8.79,12.03 15.22,15.81 6.42,3.79 13.69,5.68 21.8,5.68zm116.23 -134.2c-13.25,0 -19.87,7.1 -19.87,21.29l0 15.4 33.87 0 0 8.72 -33.67 0 0 97.1 -10.14 0 0 -97.1 -19.48 0 0 -8.72 19.48 0 0 -16.21c0,-8.93 2.57,-16.02 7.7,-21.29 5.14,-5.27 12.38,-7.91 21.71,-7.91 4.06,0 7.94,0.58 11.66,1.73 3.72,1.15 6.8,2.87 9.23,5.16l-4.05 7.71c-4.33,-3.92 -9.81,-5.88 -16.44,-5.88zm66.54 0c-13.25,0 -19.88,7.1 -19.88,21.29l0 15.4 33.88 0 0 8.72 -33.68 0 0 97.1 -10.14 0 0 -97.1 -19.47 0 0 -8.72 19.47 0 0 -16.21c0,-8.93 2.57,-16.02 7.71,-21.29 5.14,-5.27 12.37,-7.91 21.7,-7.91 4.06,0 7.95,0.58 11.67,1.73 3.72,1.15 6.79,2.87 9.23,5.16l-4.06 7.71c-4.33,-3.92 -9.8,-5.88 -16.43,-5.88zm122.32 92.04l-91.08 0c0.27,8.24 2.37,15.57 6.29,21.99 3.92,6.42 9.23,11.39 15.92,14.9 6.7,3.51 14.23,5.27 22.62,5.27 6.9,0 13.29,-1.25 19.17,-3.75 5.88,-2.5 10.78,-6.18 14.7,-11.05l5.89 6.69c-4.6,5.54 -10.38,9.8 -17.35,12.77 -6.96,2.98 -14.5,4.46 -22.61,4.46 -10.55,0 -19.95,-2.29 -28.2,-6.89 -8.25,-4.59 -14.71,-10.94 -19.37,-19.05 -4.67,-8.11 -7,-17.37 -7,-27.78 0,-10.27 2.2,-19.49 6.59,-27.67 4.4,-8.18 10.45,-14.56 18.16,-19.16 7.71,-4.59 16.36,-6.89 25.96,-6.89 9.6,0 18.22,2.26 25.86,6.79 7.65,4.53 13.66,10.85 18.06,18.96 4.39,8.11 6.59,17.3 6.59,27.57l-0.2 2.84zm-50.31 -47.24c-7.44,0 -14.13,1.66 -20.08,4.97 -5.95,3.31 -10.72,7.97 -14.3,13.99 -3.59,6.01 -5.65,12.8 -6.19,20.37l81.14 0c-0.4,-7.57 -2.43,-14.33 -6.08,-20.27 -3.65,-5.95 -8.46,-10.61 -14.41,-13.99 -5.95,-3.38 -12.64,-5.07 -20.08,-5.07zm171.41 47.24l-91.08 0c0.27,8.24 2.37,15.57 6.29,21.99 3.92,6.42 9.23,11.39 15.92,14.9 6.7,3.51 14.24,5.27 22.62,5.27 6.9,0 13.29,-1.25 19.17,-3.75 5.88,-2.5 10.78,-6.18 14.71,-11.05l5.88 6.69c-4.6,5.54 -10.38,9.8 -17.34,12.77 -6.97,2.98 -14.51,4.46 -22.62,4.46 -10.55,0 -19.95,-2.29 -28.2,-6.89 -8.25,-4.59 -14.71,-10.94 -19.37,-19.05 -4.67,-8.11 -7,-17.37 -7,-27.78 0,-10.27 2.2,-19.49 6.59,-27.67 4.4,-8.18 10.45,-14.56 18.16,-19.16 7.71,-4.59 16.36,-6.89 25.96,-6.89 9.6,0 18.23,2.26 25.87,6.79 7.64,4.53 13.65,10.85 18.05,18.96 4.39,8.11 6.59,17.3 6.59,27.57l-0.2 2.84zm-50.31 -47.24c-7.44,0 -14.13,1.66 -20.08,4.97 -5.95,3.31 -10.72,7.97 -14.3,13.99 -3.58,6.01 -5.65,12.8 -6.19,20.37l81.14 0c-0.4,-7.57 -2.43,-14.33 -6.08,-20.27 -3.65,-5.95 -8.45,-10.61 -14.4,-13.99 -5.96,-3.38 -12.65,-5.07 -20.09,-5.07zm80.74 98.52c-2.3,0 -4.3,-0.84 -5.99,-2.53 -1.69,-1.69 -2.53,-3.75 -2.53,-6.18 0,-2.44 0.84,-4.46 2.53,-6.09 1.69,-1.62 3.69,-2.43 5.99,-2.43 2.3,0 4.29,0.81 5.98,2.43 1.69,1.63 2.54,3.65 2.54,6.09 0,2.43 -0.85,4.49 -2.54,6.18 -1.69,1.69 -3.68,2.53 -5.98,2.53zm152.74 0.21c-17.98,0 -31.95,-5.21 -41.89,-15.61 -9.94,-10.41 -14.91,-25.61 -14.91,-45.61l0 -81.7 10.35 0 0 81.29c0,17.43 3.99,30.48 11.97,39.13 7.98,8.64 19.54,12.97 34.69,12.97 15.01,0 26.5,-4.33 34.48,-12.97 7.98,-8.65 11.97,-21.7 11.97,-39.13l0 -81.29 10.34 0 0 81.7c0,20 -5,35.2 -15.01,45.61 -10.01,10.4 -24,15.61 -41.99,15.61zm153.76 -107.65c13.25,0 23.73,3.85 31.44,11.56 7.71,7.7 11.56,18.78 11.56,33.24l0 61.83 -10.14 0 0 -61.02c0,-11.89 -3.01,-20.94 -9.02,-27.16 -6.02,-6.22 -14.44,-9.33 -25.26,-9.33 -12.44,0 -22.24,3.72 -29.41,11.15 -7.17,7.44 -10.75,17.44 -10.75,30.01l0 56.35 -10.15 0 0 -105.82 9.74 0 0 22.91c3.65,-7.43 9.09,-13.25 16.33,-17.43 7.24,-4.19 15.79,-6.29 25.66,-6.29zm137.94 0c9.87,0 18.8,2.26 26.77,6.79 7.98,4.53 14.24,10.88 18.77,19.06 4.53,8.18 6.79,17.47 6.79,27.87 0,10.41 -2.26,19.67 -6.79,27.78 -4.53,8.11 -10.79,14.46 -18.77,19.05 -7.97,4.6 -16.9,6.89 -26.77,6.89 -9.47,0 -18.02,-2.26 -25.66,-6.79 -7.64,-4.53 -13.56,-10.84 -17.75,-18.95l0 24.93 -9.74 0 0 -150.42 10.14 0 0 68.73c4.2,-7.84 10.08,-13.96 17.65,-18.35 7.57,-4.39 16.03,-6.59 25.36,-6.59zm-0.61 98.32c8.11,0 15.42,-1.89 21.91,-5.68 6.49,-3.78 11.59,-9.05 15.31,-15.81 3.72,-6.75 5.58,-14.46 5.58,-23.11 0,-8.65 -1.86,-16.35 -5.58,-23.11 -3.72,-6.76 -8.82,-12.02 -15.31,-15.81 -6.49,-3.78 -13.8,-5.68 -21.91,-5.68 -8.11,0 -15.38,1.9 -21.81,5.68 -6.42,3.79 -11.49,9.05 -15.21,15.81 -3.72,6.76 -5.58,14.46 -5.58,23.11 0,8.65 1.86,16.36 5.58,23.11 3.72,6.76 8.79,12.03 15.21,15.81 6.43,3.79 13.7,5.68 21.81,5.68zm173.84 -42.16l-91.08 0c0.27,8.24 2.37,15.57 6.29,21.99 3.92,6.42 9.23,11.39 15.92,14.9 6.7,3.51 14.24,5.27 22.62,5.27 6.9,0 13.29,-1.25 19.17,-3.75 5.88,-2.5 10.78,-6.18 14.71,-11.05l5.88 6.69c-4.6,5.54 -10.38,9.8 -17.34,12.77 -6.97,2.98 -14.51,4.46 -22.62,4.46 -10.55,0 -19.95,-2.29 -28.2,-6.89 -8.25,-4.59 -14.7,-10.94 -19.37,-19.05 -4.66,-8.11 -7,-17.37 -7,-27.78 0,-10.27 2.2,-19.49 6.6,-27.67 4.39,-8.18 10.44,-14.56 18.15,-19.16 7.71,-4.59 16.36,-6.89 25.96,-6.89 9.61,0 18.23,2.26 25.87,6.79 7.64,4.53 13.65,10.85 18.05,18.96 4.4,8.11 6.59,17.3 6.59,27.57l-0.2 2.84zm-50.31 -47.24c-7.43,0 -14.13,1.66 -20.08,4.97 -5.95,3.31 -10.71,7.97 -14.3,13.99 -3.58,6.01 -5.65,12.8 -6.19,20.37l81.14 0c-0.4,-7.57 -2.43,-14.33 -6.08,-20.27 -3.65,-5.95 -8.45,-10.61 -14.4,-13.99 -5.95,-3.38 -12.65,-5.07 -20.09,-5.07zm114.61 -8.92c13.12,0 23.2,3.35 30.23,10.04 7.03,6.69 10.55,16.52 10.55,29.49l0 67.1 -9.74 0 0 -18.85c-3.38,6.22 -8.32,11.05 -14.81,14.49 -6.49,3.45 -14.26,5.17 -23.33,5.17 -11.76,0 -21.06,-2.77 -27.89,-8.31 -6.83,-5.54 -10.24,-12.84 -10.24,-21.89 0,-8.79 3.14,-15.92 9.43,-21.39 6.29,-5.47 16.33,-8.21 30.12,-8.21l36.31 0 0 -8.51c0,-9.87 -2.67,-17.37 -8.01,-22.51 -5.34,-5.13 -13.15,-7.7 -23.43,-7.7 -7.03,0 -13.76,1.22 -20.18,3.65 -6.42,2.43 -11.87,5.68 -16.33,9.73l-5.07 -7.3c5.27,-4.73 11.63,-8.41 19.07,-11.04 7.43,-2.64 15.21,-3.96 23.32,-3.96zm-5.68 99.13c8.79,0 16.27,-2.02 22.42,-6.08 6.15,-4.05 10.78,-9.93 13.89,-17.63l0 -19.87 -36.1 0c-10.42,0 -17.95,1.89 -22.62,5.67 -4.67,3.79 -7,8.99 -7,15.61 0,6.9 2.57,12.34 7.71,16.32 5.14,3.99 12.37,5.98 21.7,5.98zm140.78 0.81c-2.57,2.44 -5.78,4.3 -9.64,5.58 -3.85,1.28 -7.87,1.92 -12.07,1.92 -9.19,0 -16.29,-2.53 -21.29,-7.6 -5.01,-5.06 -7.51,-12.13 -7.51,-21.18l0 -69.13 -19.47 0 0 -8.72 19.47 0 0 -23.11 10.14 0 0 23.11 33.68 0 0 8.72 -33.68 0 0 68.11c0,6.9 1.66,12.13 4.97,15.72 3.32,3.58 8.22,5.37 14.71,5.37 6.63,0 12.1,-1.96 16.43,-5.88l4.26 7.09zm113.8 -43.78l-91.08 0c0.27,8.24 2.36,15.57 6.29,21.99 3.92,6.42 9.23,11.39 15.92,14.9 6.69,3.51 14.23,5.27 22.62,5.27 6.9,0 13.28,-1.25 19.17,-3.75 5.88,-2.5 10.78,-6.18 14.7,-11.05l5.89 6.69c-4.6,5.54 -10.38,9.8 -17.35,12.77 -6.96,2.98 -14.5,4.46 -22.62,4.46 -10.54,0 -19.94,-2.29 -28.19,-6.89 -8.25,-4.59 -14.71,-10.94 -19.37,-19.05 -4.67,-8.11 -7,-17.37 -7,-27.78 0,-10.27 2.2,-19.49 6.59,-27.67 4.4,-8.18 10.45,-14.56 18.16,-19.16 7.71,-4.59 16.36,-6.89 25.96,-6.89 9.6,0 18.22,2.26 25.86,6.79 7.64,4.53 13.66,10.85 18.06,18.96 4.39,8.11 6.59,17.3 6.59,27.57l-0.2 2.84zm-50.31 -47.24c-7.44,0 -14.13,1.66 -20.08,4.97 -5.95,3.31 -10.72,7.97 -14.3,13.99 -3.59,6.01 -5.65,12.8 -6.19,20.37l81.14 0c-0.41,-7.57 -2.43,-14.33 -6.09,-20.27 -3.65,-5.95 -8.45,-10.61 -14.4,-13.99 -5.95,-3.38 -12.64,-5.07 -20.08,-5.07zm133.68 -8.92c13.25,0 23.73,3.85 31.44,11.56 7.71,7.7 11.56,18.78 11.56,33.24l0 61.83 -10.14 0 0 -61.02c0,-11.89 -3.01,-20.94 -9.03,-27.16 -6.01,-6.22 -14.43,-9.33 -25.25,-9.33 -12.44,0 -22.25,3.72 -29.41,11.15 -7.17,7.44 -10.75,17.44 -10.75,30.01l0 56.35 -10.15 0 0 -105.82 9.74 0 0 22.91c3.65,-7.43 9.09,-13.25 16.33,-17.43 7.23,-4.19 15.79,-6.29 25.66,-6.29zm167.35 -25.95l-51.12 0 0 -9.32 112.58 0 0 9.32 -51.12 0 0 132.58 -10.34 0 0 -132.58zm113.59 25.95c13.12,0 23.19,3.35 30.23,10.04 7.03,6.69 10.55,16.52 10.55,29.49l0 67.1 -9.74 0 0 -18.85c-3.38,6.22 -8.32,11.05 -14.81,14.49 -6.49,3.45 -14.27,5.17 -23.33,5.17 -11.76,0 -21.06,-2.77 -27.89,-8.31 -6.83,-5.54 -10.24,-12.84 -10.24,-21.89 0,-8.79 3.14,-15.92 9.43,-21.39 6.29,-5.47 16.33,-8.21 30.12,-8.21l36.31 0 0 -8.51c0,-9.87 -2.67,-17.37 -8.01,-22.51 -5.34,-5.13 -13.15,-7.7 -23.43,-7.7 -7.03,0 -13.76,1.22 -20.18,3.65 -6.43,2.43 -11.87,5.68 -16.33,9.73l-5.07 -7.3c5.27,-4.73 11.63,-8.41 19.06,-11.04 7.44,-2.64 15.22,-3.96 23.33,-3.96zm-5.68 99.13c8.79,0 16.27,-2.02 22.42,-6.08 6.15,-4.05 10.78,-9.93 13.89,-17.63l0 -19.87 -36.1 0c-10.42,0 -17.96,1.89 -22.62,5.67 -4.67,3.79 -7,8.99 -7,15.61 0,6.9 2.57,12.34 7.71,16.32 5.14,3.99 12.37,5.98 21.7,5.98zm115.02 8.31c-8.52,0 -16.64,-1.28 -24.35,-3.85 -7.7,-2.57 -13.72,-5.81 -18.05,-9.73l4.67 -8.11c4.32,3.65 9.9,6.69 16.73,9.13 6.83,2.43 13.96,3.64 21.4,3.64 10.69,0 18.56,-1.75 23.63,-5.27 5.08,-3.51 7.61,-8.37 7.61,-14.59 0,-4.46 -1.38,-7.98 -4.16,-10.54 -2.77,-2.57 -6.18,-4.46 -10.24,-5.68 -4.06,-1.22 -9.67,-2.5 -16.84,-3.85 -8.38,-1.49 -15.14,-3.11 -20.28,-4.87 -5.14,-1.75 -9.54,-4.59 -13.19,-8.51 -3.65,-3.92 -5.47,-9.33 -5.47,-16.22 0,-8.38 3.48,-15.3 10.44,-20.78 6.97,-5.47 16.87,-8.21 29.72,-8.21 6.76,0 13.46,0.95 20.08,2.84 6.63,1.89 12.04,4.39 16.23,7.5l-4.66 8.11c-4.33,-3.11 -9.27,-5.47 -14.81,-7.1 -5.55,-1.62 -11.23,-2.43 -17.04,-2.43 -9.87,0 -17.31,1.83 -22.32,5.47 -5,3.65 -7.5,8.45 -7.5,14.4 0,4.73 1.42,8.41 4.26,11.05 2.84,2.63 6.32,4.59 10.45,5.88 4.12,1.28 9.9,2.66 17.34,4.15 8.25,1.49 14.91,3.08 19.98,4.77 5.07,1.68 9.36,4.42 12.88,8.21 3.52,3.78 5.27,8.98 5.27,15.6 0,8.79 -3.65,15.82 -10.95,21.09 -7.3,5.27 -17.58,7.9 -30.83,7.9zm122.72 -7.5c-2.57,2.44 -5.78,4.3 -9.64,5.58 -3.85,1.28 -7.87,1.92 -12.06,1.92 -9.2,0 -16.3,-2.53 -21.3,-7.6 -5.01,-5.06 -7.51,-12.13 -7.51,-21.18l0 -69.13 -19.47 0 0 -8.72 19.47 0 0 -23.11 10.14 0 0 23.11 33.68 0 0 8.72 -33.68 0 0 68.11c0,6.9 1.66,12.13 4.97,15.72 3.32,3.58 8.22,5.37 14.71,5.37 6.63,0 12.1,-1.96 16.43,-5.88l4.26 7.09zm113.8 -43.78l-91.08 0c0.27,8.24 2.37,15.57 6.29,21.99 3.92,6.42 9.23,11.39 15.92,14.9 6.7,3.51 14.23,5.27 22.62,5.27 6.9,0 13.29,-1.25 19.17,-3.75 5.88,-2.5 10.78,-6.18 14.7,-11.05l5.89 6.69c-4.6,5.54 -10.38,9.8 -17.35,12.77 -6.96,2.98 -14.5,4.46 -22.61,4.46 -10.55,0 -19.95,-2.29 -28.2,-6.89 -8.25,-4.59 -14.71,-10.94 -19.37,-19.05 -4.67,-8.11 -7,-17.37 -7,-27.78 0,-10.27 2.2,-19.49 6.59,-27.67 4.4,-8.18 10.45,-14.56 18.16,-19.16 7.71,-4.59 16.36,-6.89 25.96,-6.89 9.6,0 18.22,2.26 25.86,6.79 7.65,4.53 13.66,10.85 18.06,18.96 4.39,8.11 6.59,17.3 6.59,27.57l-0.2 2.84zm-50.31 -47.24c-7.44,0 -14.13,1.66 -20.08,4.97 -5.95,3.31 -10.72,7.97 -14.3,13.99 -3.59,6.01 -5.65,12.8 -6.19,20.37l81.14 0c-0.4,-7.57 -2.43,-14.33 -6.08,-20.27 -3.65,-5.95 -8.46,-10.61 -14.41,-13.99 -5.95,-3.38 -12.64,-5.07 -20.08,-5.07zm80.74 98.52c-2.3,0 -4.3,-0.84 -5.99,-2.53 -1.69,-1.69 -2.53,-3.75 -2.53,-6.18 0,-2.44 0.84,-4.46 2.53,-6.09 1.69,-1.62 3.69,-2.43 5.99,-2.43 2.3,0 4.29,0.81 5.98,2.43 1.69,1.63 2.54,3.65 2.54,6.09 0,2.43 -0.85,4.49 -2.54,6.18 -1.69,1.69 -3.68,2.53 -5.98,2.53z"/>
    </g>
   </g>
  </g>
 </g>
</svg>
